# File produced by Open Asset Import Library (http://www.assimp.sf.net)
# (assimp v3.2.202087883)

mtllib model_normalized.mtl

# 146 vertex positions
v -0.176600 -0.397699 -0.212547
v 0.115510 -0.397699 0.195241
v -0.176600 -0.397699 0.195241
v 0.115510 -0.397699 -0.054212
v 0.106586 -0.188679 0.195241
v -0.176600 0.076797 0.195241
v 0.115510 -0.397699 -0.212547
v 0.115510 -0.341794 -0.054212
v 0.111251 0.016652 0.195241
v -0.153945 -0.188679 0.195241
v -0.176600 0.076797 -0.212547
v 0.106586 -0.300189 -0.212547
v 0.115510 0.012921 -0.212547
v 0.115510 -0.341794 0.195241
v 0.106586 0.063503 0.195241
v 0.106586 -0.188679 0.275341
v 0.076225 0.076797 -0.212547
v -0.153945 -0.094077 -0.212547
v -0.153945 0.069336 0.195241
v -0.153945 -0.300189 -0.212547
v 0.115510 -0.285890 -0.054212
v 0.115510 -0.285890 0.195241
v 0.134905 0.043682 0.195241
v -0.153945 -0.188679 0.275341
v -0.153945 0.076797 0.195241
v 0.074874 0.071294 -0.212547
v -0.153945 0.069336 0.275341
v 0.111251 0.016652 -0.212547
v -0.153945 -0.300189 -0.370324
v 0.115510 -0.229986 -0.054212
v 0.115510 -0.229986 0.195241
v 0.134905 0.056546 0.195241
v 0.115510 0.012921 0.195241
v 0.106586 0.069336 0.275341
v 0.030135 -0.118362 0.275341
v 0.076225 0.076797 0.195241
v 0.134905 0.056546 -0.212547
v 0.106586 -0.094077 -0.212547
v -0.153945 0.076797 0.275341
v 0.134905 0.043682 -0.212547
v 0.106586 -0.300189 -0.370324
v 0.106586 -0.094077 -0.370324
v 0.115510 -0.174082 -0.054212
v 0.115510 -0.174082 0.195241
v 0.140568 0.041554 0.195241
v 0.106586 0.069336 0.195241
v -0.139777 -0.118362 0.275341
v 0.106586 0.076797 0.195241
v 0.086991 0.074152 0.125127
v 0.140568 0.060987 -0.212547
v -0.153945 -0.094077 -0.370324
v 0.140568 0.041554 -0.212547
v 0.115510 0.012921 -0.054212
v 0.140568 0.060987 0.195241
v 0.030135 -0.075884 0.275341
v -0.020839 -0.080096 0.331474
v -0.139777 -0.109866 0.275341
v 0.130994 0.063342 0.125127
v 0.086991 0.074152 0.057162
v 0.086991 0.074152 -0.109917
v 0.106586 0.076797 0.275341
v 0.030135 -0.109866 0.275341
v 0.030135 -0.021064 0.418075
v -0.088803 -0.080096 0.331474
v -0.139777 -0.075884 0.275341
v -0.139777 -0.021064 0.418075
v 0.130994 0.063342 0.057162
v 0.086991 0.074152 0.043003
v 0.086991 0.074152 -0.041953
v 0.130994 0.063342 -0.109917
v 0.030135 -0.109866 0.252686
v -0.020839 -0.021064 0.418075
v -0.088803 -0.021064 0.418075
v -0.088803 -0.074587 0.328004
v -0.139777 -0.075884 0.252686
v -0.139777 -0.016272 0.415056
v 0.130994 0.063342 0.043003
v 0.086991 0.074152 0.006189
v 0.086991 0.074152 -0.036289
v 0.130994 0.063342 -0.041953
v 0.030135 -0.075884 0.252686
v -0.139777 -0.109866 0.252686
v 0.030135 -0.016272 0.415056
v -0.020839 -0.074587 0.328004
v -0.088803 -0.016272 0.415056
v 0.130994 0.063342 0.006189
v 0.086991 0.074152 0.000525
v 0.130994 0.063342 -0.036289
v -0.020839 -0.016272 0.415056
v 0.130994 0.063342 0.000525
v -0.139371 0.099452 0.082270
v 0.028886 0.099452 0.138907
v -0.139371 0.099452 0.138907
v 0.028886 0.099452 0.082270
v -0.139371 0.088124 0.138907
v -0.139371 0.099452 -0.121423
v -0.139371 0.105115 0.082270
v 0.028886 0.099452 -0.121423
v 0.028886 0.088124 0.138907
v -0.139371 0.105115 -0.121423
v 0.062868 0.105115 0.082270
v 0.062868 0.099452 -0.121423
v 0.062868 0.099452 0.082270
v -0.139371 0.105115 0.195241
v -0.139371 0.110779 -0.212547
v 0.062868 0.099452 0.195241
v 0.062868 0.105115 0.195241
v -0.139371 0.105115 -0.212547
v 0.076225 0.099452 -0.212547
v 0.062868 0.105115 -0.121423
v -0.139371 0.110779 0.195241
v 0.062868 0.105115 -0.212547
v 0.062868 0.099452 -0.212547
v 0.076225 0.099452 0.195241
v -0.176600 0.110779 0.195241
v 0.028886 0.096620 -0.212547
v -0.139371 0.096620 -0.212547
v -0.176600 0.110779 -0.212547
v 0.028886 0.079629 -0.212547
v -0.139371 0.088124 -0.212547
v 0.028886 0.088124 -0.212547
v 0.028886 0.096620 -0.178564
v -0.139371 0.079629 -0.212547
v -0.139371 0.088124 -0.178564
v 0.028886 0.088124 -0.382458
v -0.139371 0.096620 -0.178564
v -0.139371 0.079629 -0.382458
v -0.133707 0.088124 -0.382458
v 0.028886 0.079629 -0.382458
v 0.023222 0.088124 -0.382458
v 0.028886 0.088124 -0.178564
v 0.023222 0.088124 -0.178564
v -0.089227 0.079629 -0.280511
v -0.139371 0.088124 -0.382458
v -0.133707 0.088124 -0.178564
v -0.021262 0.079629 -0.280511
v 0.023222 0.082460 -0.382458
v -0.089227 0.079629 -0.382458
v -0.133707 0.082460 -0.178564
v -0.021262 0.079629 -0.382458
v -0.021262 0.082460 -0.280511
v -0.133707 0.082460 -0.382458
v -0.089227 0.082460 -0.382458
v -0.021262 0.082460 -0.382458
v 0.023222 0.082460 -0.178564
v -0.089227 0.082460 -0.280511

# 7 UV coordinates
vt 0 0 0
vt 7.98691 4.02952 0
vt 8.98691 2.96751 0
vt 8.98691 4.02952 0
vt 8.52858 2.96751 0
vt 7.98691 2.96751 0
vt 8.52858 4.02952 0

# 18 vertex normals
vn 0 -0.0254 0
vn 0 0.0254 0
vn 0 0 0.0254
vn 0 0 -0.0254
vn -0.0254 0 0
vn 0.0254 -0 0
vn 0.00605965 0.0246666 0
vn -0.00605965 -0.0246666 0
vn 0.019114 -0.0167276 -0
vn -0.019114 0.0167276 0
vn 0 -0.0209877 0.0143066
vn 0 0.0209877 -0.0143066
vn 0 0.0135424 0.0214887
vn 0 -0.0135424 -0.0214887
vn 0 0.0211027 -0.0141364
vn 0 -0.0211027 0.0141364
vn 0 0.025376 0.00110416
vn 0 -0.025376 -0.00110416

# Mesh 'mesh1_mesh1-geometry' with 344 faces
g mesh1_mesh1-geometry
usemtl material_0_24
f  1/1/1 2/1/1 3/1/1
f  2/1/1 1/1/1 4/1/1
f  3/1/2 2/1/2 1/1/2
f  4/1/2 1/1/2 2/1/2
f  2/1/3 5/1/3 3/1/3
f  3/1/4 5/1/4 2/1/4
f  6/1/5 1/1/5 3/1/5
f  3/1/6 1/1/6 6/1/6
f  4/1/1 1/1/1 7/1/1
f  7/1/2 1/1/2 4/1/2
f  8/1/6 2/1/6 4/1/6
f  4/1/5 2/1/5 8/1/5
f  2/1/3 9/1/3 5/1/3
f  5/1/4 9/1/4 2/1/4
f  3/1/3 5/1/3 10/1/3
f  10/1/4 5/1/4 3/1/4
f  1/1/5 6/1/5 11/1/5
f  11/1/6 6/1/6 1/1/6
f  3/1/3 10/1/3 6/1/3
f  6/1/4 10/1/4 3/1/4
f  12/1/4 7/1/4 1/1/4
f  1/1/3 7/1/3 12/1/3
f  13/1/6 4/1/6 7/1/6
f  7/1/5 4/1/5 13/1/5
f  2/1/6 8/1/6 14/1/6
f  14/1/5 8/1/5 2/1/5
f  4/1/6 13/1/6 8/1/6
f  8/1/5 13/1/5 4/1/5
f  14/1/3 9/1/3 2/1/3
f  2/1/4 9/1/4 14/1/4
f  9/1/3 15/1/3 5/1/3
f  5/1/4 15/1/4 9/1/4
f  16/1/1 10/1/1 5/1/1
f  5/1/2 10/1/2 16/1/2
f  6/1/2 17/1/2 11/1/2
f  11/1/1 17/1/1 6/1/1
f  11/1/4 18/1/4 1/1/4
f  1/1/3 18/1/3 11/1/3
f  19/1/3 6/1/3 10/1/3
f  10/1/4 6/1/4 19/1/4
f  7/1/4 12/1/4 13/1/4
f  13/1/3 12/1/3 7/1/3
f  12/1/4 1/1/4 20/1/4
f  20/1/3 1/1/3 12/1/3
f  21/1/6 14/1/6 8/1/6
f  8/1/5 14/1/5 21/1/5
f  8/1/6 13/1/6 21/1/6
f  21/1/5 13/1/5 8/1/5
f  22/1/3 9/1/3 14/1/3
f  14/1/4 9/1/4 22/1/4
f  23/1/3 15/1/3 9/1/3
f  9/1/4 15/1/4 23/1/4
f  15/1/6 16/1/6 5/1/6
f  5/1/5 16/1/5 15/1/5
f  10/1/1 16/1/1 24/1/1
f  24/1/2 16/1/2 10/1/2
f  25/1/2 17/1/2 6/1/2
f  6/1/1 17/1/1 25/1/1
f  26/1/4 11/1/4 17/1/4
f  17/1/3 11/1/3 26/1/3
f  11/1/4 26/1/4 18/1/4
f  18/1/3 26/1/3 11/1/3
f  20/1/4 1/1/4 18/1/4
f  18/1/3 1/1/3 20/1/3
f  6/1/3 19/1/3 25/1/3
f  25/1/4 19/1/4 6/1/4
f  10/1/5 27/1/5 19/1/5
f  19/1/6 27/1/6 10/1/6
f  13/1/4 12/1/4 28/1/4
f  28/1/3 12/1/3 13/1/3
f  29/1/1 12/1/1 20/1/1
f  20/1/2 12/1/2 29/1/2
f  14/1/6 21/1/6 22/1/6
f  22/1/5 21/1/5 14/1/5
f  21/1/6 13/1/6 30/1/6
f  30/1/5 13/1/5 21/1/5
f  31/1/3 9/1/3 22/1/3
f  22/1/4 9/1/4 31/1/4
f  15/1/3 23/1/3 32/1/3
f  32/1/4 23/1/4 15/1/4
f  33/1/3 23/1/3 9/1/3
f  9/1/4 23/1/4 33/1/4
f  16/1/6 15/1/6 34/1/6
f  34/1/5 15/1/5 16/1/5
f  16/1/3 35/1/3 24/1/3
f  24/1/4 35/1/4 16/1/4
f  27/1/5 10/1/5 24/1/5
f  24/1/6 10/1/6 27/1/6
f  17/1/2 25/1/2 36/1/2
f  36/1/1 25/1/1 17/1/1
f  17/1/4 37/1/4 26/1/4
f  26/1/3 37/1/3 17/1/3
f  26/1/4 38/1/4 18/1/4
f  18/1/3 38/1/3 26/1/3
f  18/1/5 29/1/5 20/1/5
f  20/1/6 29/1/6 18/1/6
f  19/1/5 39/1/5 25/1/5
f  25/1/6 39/1/6 19/1/6
f  39/1/5 19/1/5 27/1/5
f  27/1/6 19/1/6 39/1/6
f  38/1/4 28/1/4 12/1/4
f  12/1/3 28/1/3 38/1/3
f  40/1/4 13/1/4 28/1/4
f  28/1/3 13/1/3 40/1/3
f  12/1/1 29/1/1 41/1/1
f  41/1/2 29/1/2 12/1/2
f  12/1/6 42/1/6 38/1/6
f  38/1/5 42/1/5 12/1/5
f  30/1/6 22/1/6 21/1/6
f  21/1/5 22/1/5 30/1/5
f  30/1/6 13/1/6 43/1/6
f  43/1/5 13/1/5 30/1/5
f  44/1/3 9/1/3 31/1/3
f  31/1/4 9/1/4 44/1/4
f  22/1/6 30/1/6 31/1/6
f  31/1/5 30/1/5 22/1/5
f  23/1/3 45/1/3 32/1/3
f  32/1/4 45/1/4 23/1/4
f  32/1/3 46/1/3 15/1/3
f  15/1/4 46/1/4 32/1/4
f  45/1/3 23/1/3 33/1/3
f  33/1/4 23/1/4 45/1/4
f  9/1/3 44/1/3 33/1/3
f  33/1/4 44/1/4 9/1/4
f  34/1/6 15/1/6 46/1/6
f  46/1/5 15/1/5 34/1/5
f  35/1/3 16/1/3 34/1/3
f  34/1/4 16/1/4 35/1/4
f  24/1/3 35/1/3 47/1/3
f  47/1/4 35/1/4 24/1/4
f  24/1/3 47/1/3 27/1/3
f  27/1/4 47/1/4 24/1/4
f  25/1/2 48/1/2 36/1/2
f  36/1/1 48/1/1 25/1/1
f  36/1/7 49/1/7 17/1/7
f  17/1/8 49/1/8 36/1/8
f  50/1/4 37/1/4 17/1/4
f  17/1/3 37/1/3 50/1/3
f  37/1/4 28/1/4 26/1/4
f  26/1/3 28/1/3 37/1/3
f  26/1/4 28/1/4 38/1/4
f  38/1/3 28/1/3 26/1/3
f  42/1/2 18/1/2 38/1/2
f  38/1/1 18/1/1 42/1/1
f  29/1/5 18/1/5 51/1/5
f  51/1/6 18/1/6 29/1/6
f  39/1/2 48/1/2 25/1/2
f  25/1/1 48/1/1 39/1/1
f  34/1/3 39/1/3 27/1/3
f  27/1/4 39/1/4 34/1/4
f  40/1/4 52/1/4 13/1/4
f  13/1/3 52/1/3 40/1/3
f  28/1/4 37/1/4 40/1/4
f  40/1/3 37/1/3 28/1/3
f  29/1/4 42/1/4 41/1/4
f  41/1/3 42/1/3 29/1/3
f  42/1/6 12/1/6 41/1/6
f  41/1/5 12/1/5 42/1/5
f  43/1/6 13/1/6 53/1/6
f  53/1/5 13/1/5 43/1/5
f  43/1/6 31/1/6 30/1/6
f  30/1/5 31/1/5 43/1/5
f  31/1/6 43/1/6 44/1/6
f  44/1/5 43/1/5 31/1/5
f  54/1/3 32/1/3 45/1/3
f  45/1/4 32/1/4 54/1/4
f  32/1/3 54/1/3 46/1/3
f  46/1/4 54/1/4 32/1/4
f  33/1/9 52/1/9 45/1/9
f  45/1/10 52/1/10 33/1/10
f  44/1/6 53/1/6 33/1/6
f  33/1/5 53/1/5 44/1/5
f  48/1/6 34/1/6 46/1/6
f  46/1/5 34/1/5 48/1/5
f  35/1/3 34/1/3 55/1/3
f  55/1/4 34/1/4 35/1/4
f  35/1/11 56/1/11 47/1/11
f  47/1/12 56/1/12 35/1/12
f  57/1/3 27/1/3 47/1/3
f  47/1/4 27/1/4 57/1/4
f  36/1/4 48/1/4 46/1/4
f  46/1/3 48/1/3 36/1/3
f  49/1/7 36/1/7 58/1/7
f  58/1/8 36/1/8 49/1/8
f  17/1/7 49/1/7 59/1/7
f  59/1/8 49/1/8 17/1/8
f  37/1/4 50/1/4 40/1/4
f  40/1/3 50/1/3 37/1/3
f  17/1/7 60/1/7 50/1/7
f  50/1/8 60/1/8 17/1/8
f  18/1/2 42/1/2 51/1/2
f  51/1/1 42/1/1 18/1/1
f  42/1/4 29/1/4 51/1/4
f  51/1/3 29/1/3 42/1/3
f  48/1/2 39/1/2 61/1/2
f  61/1/1 39/1/1 48/1/1
f  39/1/3 34/1/3 61/1/3
f  61/1/4 34/1/4 39/1/4
f  27/1/3 55/1/3 34/1/3
f  34/1/4 55/1/4 27/1/4
f  52/1/4 40/1/4 50/1/4
f  50/1/3 40/1/3 52/1/3
f  52/1/9 53/1/9 13/1/9
f  13/1/10 53/1/10 52/1/10
f  53/1/6 44/1/6 43/1/6
f  43/1/5 44/1/5 53/1/5
f  45/1/6 50/1/6 54/1/6
f  54/1/5 50/1/5 45/1/5
f  54/1/7 58/1/7 46/1/7
f  46/1/8 58/1/8 54/1/8
f  53/1/9 52/1/9 33/1/9
f  33/1/10 52/1/10 53/1/10
f  50/1/6 45/1/6 52/1/6
f  52/1/5 45/1/5 50/1/5
f  34/1/6 48/1/6 61/1/6
f  61/1/5 48/1/5 34/1/5
f  35/1/3 55/1/3 62/1/3
f  62/1/4 55/1/4 35/1/4
f  63/1/11 56/1/11 35/1/11
f  35/1/12 56/1/12 63/1/12
f  64/1/11 47/1/11 56/1/11
f  56/1/12 47/1/12 64/1/12
f  65/1/3 27/1/3 57/1/3
f  57/1/4 27/1/4 65/1/4
f  66/1/5 57/1/5 47/1/5
f  47/1/6 57/1/6 66/1/6
f  46/1/7 58/1/7 36/1/7
f  36/1/8 58/1/8 46/1/8
f  58/1/8 49/1/8 67/1/8
f  59/1/8 67/1/8 49/1/8
f  17/1/7 59/1/7 68/1/7
f  68/1/8 59/1/8 17/1/8
f  17/1/7 69/1/7 60/1/7
f  60/1/8 69/1/8 17/1/8
f  70/1/7 50/1/7 60/1/7
f  60/1/8 50/1/8 70/1/8
f  55/1/3 27/1/3 65/1/3
f  65/1/4 27/1/4 55/1/4
f  58/1/7 54/1/7 50/1/7
f  50/1/8 54/1/8 58/1/8
f  55/1/5 71/1/5 62/1/5
f  62/1/6 71/1/6 55/1/6
f  62/1/6 63/1/6 35/1/6
f  35/1/5 63/1/5 62/1/5
f  56/1/11 63/1/11 72/1/11
f  72/1/12 63/1/12 56/1/12
f  73/1/11 47/1/11 64/1/11
f  64/1/12 47/1/12 73/1/12
f  56/1/13 74/1/13 64/1/13
f  64/1/14 74/1/14 56/1/14
f  57/1/6 75/1/6 65/1/6
f  65/1/5 75/1/5 57/1/5
f  57/1/5 66/1/5 76/1/5
f  76/1/6 66/1/6 57/1/6
f  47/1/11 73/1/11 66/1/11
f  66/1/12 73/1/12 47/1/12
f  58/1/7 50/1/7 67/1/7
f  67/1/8 50/1/8 58/1/8
f  67/1/7 77/1/7 59/1/7
f  59/1/8 77/1/8 67/1/8
f  68/1/7 59/1/7 77/1/7
f  77/1/8 59/1/8 68/1/8
f  17/1/7 68/1/7 78/1/7
f  78/1/8 68/1/8 17/1/8
f  17/1/7 79/1/7 69/1/7
f  69/1/8 79/1/8 17/1/8
f  60/1/8 70/1/8 69/1/8
f  80/1/7 50/1/7 70/1/7
f  70/1/8 50/1/8 80/1/8
f  75/1/1 55/1/1 65/1/1
f  65/1/2 55/1/2 75/1/2
f  71/1/5 55/1/5 81/1/5
f  81/1/6 55/1/6 71/1/6
f  82/1/2 62/1/2 71/1/2
f  71/1/1 62/1/1 82/1/1
f  63/1/6 62/1/6 83/1/6
f  83/1/5 62/1/5 63/1/5
f  83/1/13 72/1/13 63/1/13
f  63/1/14 72/1/14 83/1/14
f  72/1/5 84/1/5 56/1/5
f  56/1/6 84/1/6 72/1/6
f  74/1/6 73/1/6 64/1/6
f  64/1/5 73/1/5 74/1/5
f  74/1/13 56/1/13 84/1/13
f  84/1/14 56/1/14 74/1/14
f  75/1/6 57/1/6 82/1/6
f  82/1/5 57/1/5 75/1/5
f  66/1/13 85/1/13 76/1/13
f  76/1/14 85/1/14 66/1/14
f  85/1/15 57/1/15 76/1/15
f  76/1/16 57/1/16 85/1/16
f  85/1/13 66/1/13 73/1/13
f  73/1/14 66/1/14 85/1/14
f  67/1/7 50/1/7 77/1/7
f  77/1/8 50/1/8 67/1/8
f  77/1/8 68/1/8 86/1/8
f  78/1/8 86/1/8 68/1/8
f  17/1/7 78/1/7 87/1/7
f  87/1/8 78/1/8 17/1/8
f  17/1/7 87/1/7 79/1/7
f  79/1/8 87/1/8 17/1/8
f  69/1/7 79/1/7 80/1/7
f  80/1/8 79/1/8 69/1/8
f  80/1/8 69/1/8 70/1/8
f  88/1/7 50/1/7 80/1/7
f  80/1/8 50/1/8 88/1/8
f  55/1/1 75/1/1 81/1/1
f  81/1/2 75/1/2 55/1/2
f  75/1/3 71/1/3 81/1/3
f  81/1/4 71/1/4 75/1/4
f  62/1/2 82/1/2 57/1/2
f  57/1/1 82/1/1 62/1/1
f  71/1/3 75/1/3 82/1/3
f  82/1/4 75/1/4 71/1/4
f  84/1/15 83/1/15 62/1/15
f  62/1/16 83/1/16 84/1/16
f  72/1/13 83/1/13 89/1/13
f  89/1/14 83/1/14 72/1/14
f  84/1/5 72/1/5 89/1/5
f  89/1/6 72/1/6 84/1/6
f  73/1/6 74/1/6 85/1/6
f  85/1/5 74/1/5 73/1/5
f  57/1/15 74/1/15 84/1/15
f  84/1/16 74/1/16 57/1/16
f  57/1/15 85/1/15 74/1/15
f  74/1/16 85/1/16 57/1/16
f  77/1/7 50/1/7 86/1/7
f  86/1/8 50/1/8 77/1/8
f  86/1/7 90/1/7 78/1/7
f  78/1/8 90/1/8 86/1/8
f  87/1/7 78/1/7 90/1/7
f  90/1/8 78/1/8 87/1/8
f  79/1/8 88/1/8 87/1/8
f  88/1/7 80/1/7 79/1/7
f  79/1/8 80/1/8 88/1/8
f  90/1/7 50/1/7 88/1/7
f  88/1/8 50/1/8 90/1/8
f  84/1/15 62/1/15 57/1/15
f  57/1/16 62/1/16 84/1/16
f  83/1/15 84/1/15 89/1/15
f  89/1/16 84/1/16 83/1/16
f  86/1/7 50/1/7 90/1/7
f  90/1/8 50/1/8 86/1/8
f  90/1/8 87/1/8 88/1/8

# Mesh 'mesh1_mesh1-geometry' with 4 faces
g mesh1_mesh1-geometry
usemtl material_3_24
f  20/1/4 38/1/4 12/1/4
f  12/1/3 38/1/3 20/1/3
f  38/1/4 20/1/4 18/1/4
f  18/1/3 20/1/3 38/1/3

# Mesh 'mesh1_mesh1-geometry' with 2 faces
g mesh1_mesh1-geometry
usemtl material_2_24
f  67/1/7 49/1/7 58/1/7
f  49/1/7 67/1/7 59/1/7

# Mesh 'mesh1_mesh1-geometry' with 6 faces
g mesh1_mesh1-geometry
usemtl material_1_1_8
f  69/2/7 70/3/7 60/4/7
f  86/5/7 68/2/7 77/6/7
f  68/2/7 86/5/7 78/7/7
f  70/3/7 69/2/7 80/6/7
f  87/2/7 88/5/7 79/7/7
f  88/5/7 87/2/7 90/6/7

# Mesh 'mesh2_mesh2-geometry' with 218 faces
g mesh2_mesh2-geometry
usemtl material_0_24
f  91//1 92//1 93//1
f  92//1 91//1 94//1
f  93//2 92//2 91//2
f  94//2 91//2 92//2
f  93//3 95//3 92//3
f  93//6 96//6 91//6
f  91//5 96//5 93//5
f  97//4 94//4 91//4
f  91//3 94//3 97//3
f  98//5 92//5 94//5
f  94//6 92//6 98//6
f  99//3 92//3 95//3
f  96//6 93//6 95//6
f  95//5 93//5 96//5
f  100//6 91//6 96//6
f  96//5 91//5 100//5
f  101//4 94//4 97//4
f  97//3 94//3 101//3
f  91//6 100//6 97//6
f  97//5 100//5 91//5
f  92//5 98//5 99//5
f  99//6 98//6 92//6
f  98//2 94//2 102//2
f  102//1 94//1 98//1
f  98//17 95//17 99//17
f  99//18 95//18 98//18
f  95//17 98//17 96//17
f  96//18 98//18 95//18
f  98//3 100//3 96//3
f  96//4 100//4 98//4
f  94//4 101//4 103//4
f  103//3 101//3 94//3
f  104//2 101//2 97//2
f  97//1 101//1 104//1
f  100//6 105//6 97//6
f  97//5 105//5 100//5
f  103//2 102//2 94//2
f  94//1 102//1 103//1
f  102//3 100//3 98//3
f  98//4 100//4 102//4
f  101//6 106//6 103//6
f  103//5 106//5 101//5
f  101//2 104//2 107//2
f  107//1 104//1 101//1
f  97//6 105//6 104//6
f  104//5 105//5 97//5
f  105//6 100//6 108//6
f  108//5 100//5 105//5
f  103//2 109//2 102//2
f  102//1 109//1 103//1
f  100//3 102//3 110//3
f  110//4 102//4 100//4
f  106//6 101//6 107//6
f  107//5 101//5 106//5
f  106//2 109//2 103//2
f  103//1 109//1 106//1
f  104//3 106//3 107//3
f  107//4 106//4 104//4
f  104//6 105//6 111//6
f  111//5 105//5 104//5
f  100//2 112//2 108//2
f  108//1 112//1 100//1
f  108//4 11//4 105//4
f  105//3 11//3 108//3
f  102//2 109//2 113//2
f  113//1 109//1 102//1
f  102//6 112//6 110//6
f  110//5 112//5 102//5
f  112//2 100//2 110//2
f  110//1 100//1 112//1
f  109//2 106//2 114//2
f  114//1 106//1 109//1
f  6//3 106//3 104//3
f  104//4 106//4 6//4
f  105//2 115//2 111//2
f  111//1 115//1 105//1
f  115//3 104//3 111//3
f  111//4 104//4 115//4
f  112//4 116//4 108//4
f  108//3 116//3 112//3
f  117//4 11//4 108//4
f  108//3 11//3 117//3
f  105//4 11//4 118//4
f  118//3 11//3 105//3
f  109//4 119//4 113//4
f  113//3 119//3 109//3
f  112//6 102//6 113//6
f  113//5 102//5 112//5
f  106//3 36//3 114//3
f  114//4 36//4 106//4
f  36//6 109//6 114//6
f  114//5 109//5 36//5
f  36//3 106//3 6//3
f  6//4 106//4 36//4
f  6//3 104//3 115//3
f  115//4 104//4 6//4
f  115//2 105//2 118//2
f  118//1 105//1 115//1
f  116//4 112//4 119//4
f  119//3 112//3 116//3
f  108//4 116//4 117//4
f  117//3 116//3 108//3
f  120//4 11//4 117//4
f  117//3 11//3 120//3
f  11//5 115//5 118//5
f  118//6 115//6 11//6
f  17//4 119//4 109//4
f  109//3 119//3 17//3
f  113//4 119//4 112//4
f  112//3 119//3 113//3
f  109//6 36//6 17//6
f  17//5 36//5 109//5
f  11//1 36//1 6//1
f  6//2 36//2 11//2
f  115//5 11//5 6//5
f  6//6 11//6 115//6
f  116//4 119//4 121//4
f  121//3 119//3 116//3
f  116//2 117//2 122//2
f  123//4 11//4 120//4
f  120//3 11//3 123//3
f  120//5 124//5 117//5
f  119//4 17//4 11//4
f  11//3 17//3 119//3
f  36//1 11//1 17//1
f  17//2 11//2 36//2
f  119//6 125//6 121//6
f  121//5 125//5 119//5
f  116//6 122//6 121//6
f  126//2 122//2 117//2
f  119//4 11//4 123//4
f  123//3 11//3 119//3
f  120//5 127//5 123//5
f  123//6 127//6 120//6
f  126//5 117//5 124//5
f  124//2 128//2 120//2
f  120//1 128//1 124//1
f  125//6 119//6 129//6
f  129//5 119//5 125//5
f  130//2 121//2 125//2
f  125//1 121//1 130//1
f  131//6 121//6 122//6
f  126//3 132//3 122//3
f  123//1 133//1 119//1
f  119//2 133//2 123//2
f  127//5 120//5 134//5
f  134//6 120//6 127//6
f  133//1 123//1 127//1
f  127//2 123//2 133//2
f  124//3 135//3 126//3
f  128//2 124//2 135//2
f  135//1 124//1 128//1
f  120//2 128//2 134//2
f  134//1 128//1 120//1
f  119//1 136//1 129//1
f  129//2 136//2 119//2
f  129//4 137//4 125//4
f  125//3 137//3 129//3
f  132//2 121//2 130//2
f  130//1 121//1 132//1
f  130//4 125//4 137//4
f  137//3 125//3 130//3
f  121//2 132//2 131//2
f  131//1 132//1 121//1
f  131//3 122//3 132//3
f  135//3 132//3 126//3
f  136//1 119//1 133//1
f  133//2 119//2 136//2
f  128//4 127//4 134//4
f  134//3 127//3 128//3
f  133//1 127//1 138//1
f  138//2 127//2 133//2
f  139//6 128//6 135//6
f  135//5 128//5 139//5
f  129//1 136//1 140//1
f  140//2 136//2 129//2
f  137//4 129//4 140//4
f  140//3 129//3 137//3
f  137//5 132//5 130//5
f  130//6 132//6 137//6
f  139//3 132//3 135//3
f  133//4 141//4 136//4
f  136//3 141//3 133//3
f  142//4 127//4 128//4
f  128//3 127//3 142//3
f  127//4 143//4 138//4
f  138//3 143//3 127//3
f  143//6 133//6 138//6
f  138//5 133//5 143//5
f  128//6 139//6 142//6
f  142//5 139//5 128//5
f  141//5 140//5 136//5
f  136//6 140//6 141//6
f  137//4 140//4 144//4
f  144//3 140//3 137//3
f  132//5 137//5 145//5
f  145//6 137//6 132//6
f  145//3 132//3 139//3
f  141//4 133//4 146//4
f  146//3 133//3 141//3
f  143//4 127//4 142//4
f  142//3 127//3 143//3
f  133//6 143//6 146//6
f  146//5 143//5 133//5
f  139//2 146//2 142//2
f  142//1 146//1 139//1
f  140//5 141//5 144//5
f  144//6 141//6 140//6
f  141//2 137//2 144//2
f  144//1 137//1 141//1
f  141//2 145//2 137//2
f  137//1 145//1 141//1
f  145//2 141//2 139//2
f  139//1 141//1 145//1
f  146//2 139//2 141//2
f  141//1 139//1 146//1
f  142//2 146//2 143//2
f  143//1 146//1 142//1

# Mesh 'mesh2_mesh2-geometry' with 14 faces
g mesh2_mesh2-geometry
usemtl material_2_24
f  92//4 95//4 93//4
f  95//4 92//4 99//4
f  122//1 117//1 116//1
f  117//6 124//6 120//6
f  121//5 122//5 116//5
f  117//1 122//1 126//1
f  124//6 117//6 126//6
f  122//5 121//5 131//5
f  122//4 132//4 126//4
f  126//4 135//4 124//4
f  132//4 122//4 131//4
f  126//4 132//4 135//4
f  135//4 132//4 139//4
f  139//4 132//4 145//4

