# File produced by Open Asset Import Library (http://www.assimp.sf.net)
# (assimp v3.2.202087883)

mtllib model_normalized.mtl

# 96 vertex positions
v -0.067917 -0.415759 0.249863
v 0.063011 -0.415759 0.249863
v -0.002453 -0.415759 0.258487
v -0.128920 -0.415759 0.224600
v 0.124013 -0.415759 0.224600
v -0.181309 -0.415759 0.184399
v 0.107782 0.128048 0.265577
v -0.002453 0.128048 0.258487
v 0.063011 0.128048 0.249863
v -0.114780 0.128048 0.260648
v -0.067917 0.128048 0.249863
v -0.179686 0.128048 0.221234
v -0.128920 0.128048 0.224600
v -0.181309 0.128048 0.184399
v 0.176392 -0.415759 0.184399
v 0.174371 0.128048 0.229081
v -0.232175 0.128048 0.166365
v -0.221500 -0.415759 0.132020
v 0.124013 0.128048 0.224600
v -0.041887 0.128048 0.281918
v -0.221500 0.128048 0.132020
v 0.216593 -0.415759 0.132020
v 0.229240 0.128048 0.176592
v 0.034023 0.128048 0.283601
v -0.268681 0.128048 0.099776
v -0.246773 -0.415759 0.071017
v 0.176392 0.128048 0.184399
v -0.246773 0.128048 0.071017
v 0.241866 -0.415759 0.071017
v 0.216593 0.128048 0.132020
v -0.286705 0.128048 0.026017
v -0.255387 -0.415759 0.005553
v 0.268653 0.128048 0.111686
v 0.241866 0.128048 0.071017
v -0.255387 0.128048 0.005553
v 0.250480 -0.415759 0.005553
v 0.289924 0.128048 0.038793
v -0.285022 0.128048 -0.049893
v -0.246773 -0.415759 -0.059911
v 0.250480 0.128048 0.005553
v -0.246773 0.128048 -0.059911
v 0.241866 -0.415759 -0.059911
v 0.291607 0.128048 -0.037117
v -0.263742 0.128048 -0.122786
v 0.216593 -0.415759 -0.120913
v 0.241866 0.128048 -0.059911
v -0.221500 -0.415759 -0.120913
v -0.221500 0.128048 -0.120913
v 0.273583 0.128048 -0.110886
v -0.181309 -0.415759 -0.173303
v -0.181309 0.128048 -0.173303
v 0.216593 0.128048 -0.120913
v 0.176392 -0.415759 -0.173303
v -0.224328 0.128048 -0.187692
v 0.237086 0.128048 -0.177465
v 0.176392 0.128048 -0.173303
v -0.128920 -0.415759 -0.213493
v -0.128920 0.128048 -0.213493
v 0.124013 0.128048 -0.213493
v 0.124013 -0.415759 -0.213493
v -0.169459 0.128048 -0.240180
v 0.184598 0.128048 -0.232334
v -0.067917 -0.415759 -0.238766
v -0.067917 0.128048 -0.238766
v 0.063011 0.128048 -0.238766
v 0.063011 -0.415759 -0.238766
v -0.002453 0.128048 -0.247380
v 0.119692 0.128048 -0.271747
v -0.002453 -0.415759 -0.247380
v -0.102880 0.128048 -0.276687
v 0.046799 0.128048 -0.293028
v -0.029111 0.128048 -0.294711
v 0.107782 0.159664 0.265577
v -0.179686 0.159664 0.221234
v -0.114780 0.159664 0.260648
v 0.174371 0.159664 0.229081
v 0.034023 0.159664 0.283601
v -0.232175 0.159664 0.166365
v -0.041887 0.159664 0.281918
v 0.229240 0.159664 0.176592
v -0.268681 0.159664 0.099776
v 0.268653 0.159664 0.111686
v -0.286705 0.159664 0.026017
v 0.289924 0.159664 0.038793
v 0.291607 0.159664 -0.037117
v -0.285022 0.159664 -0.049893
v 0.273583 0.159664 -0.110886
v -0.263742 0.159664 -0.122786
v 0.237086 0.159664 -0.177465
v -0.224328 0.159664 -0.187692
v -0.169459 0.159664 -0.240180
v 0.184598 0.159664 -0.232334
v -0.102880 0.159664 -0.276687
v 0.119692 0.159664 -0.271747
v -0.029111 0.159664 -0.294711
v 0.046799 0.159664 -0.293028

# 147 UV coordinates
vt 0 0 0
vt 5.67232 0 0
vt 5.23599 0.447917 0
vt 5.23599 0 0
vt 4.79965 0.447917 0
vt 4.79965 0 0
vt 4.36332 0.447917 0
vt 4.36332 0 0
vt 5.67232 0.447917 0
vt 3.92699 0.447917 0
vt 6.10865 0 0
vt -16.7459 5.44826 0
vt -16.6891 5.50218 0
vt -16.6423 5.41138 0
vt -16.7459 5.5561 0
vt -16.6748 5.5947 0
vt -16.9124 5.60635 0
vt -16.9345 5.64816 0
vt 3.92699 0 0
vt -17.1772 5.6495 0
vt 6.10865 0.447917 0
vt -16.8828 5.35654 0
vt 3.49066 0 0
vt -17.2961 5.6914 0
vt 6.54498 0 0
vt -16.9124 5.39801 0
vt -16.5346 5.53467 0
vt 12 -0 0
vt 11.5 0.026042 0
vt 11.5 -0 0
vt 10 0 0
vt 9.5 0.026042 0
vt 9.5 0 0
vt 3.49066 0.447917 0
vt 9 0 0
vt -17.5224 5.6826 0
vt 6.54498 0.447917 0
vt -17.2287 5.31134 0
vt -16.5235 5.47214 0
vt 10.5 0 0
vt 10 0.026042 0
vt 12 0.026042 0
vt 11 0.026042 0
vt 3.05433 0 0
vt 9 0.026042 0
vt -17.7348 5.72146 0
vt 6.98132 0.447917 0
vt 6.98132 0 0
vt -17.1772 5.35487 0
vt 0.5 -0 0
vt 0 0.026042 0
vt 11 -0 0
vt 10.5 0.026042 0
vt 3.05433 0.447917 0
vt 8.5 0 0
vt -17.9244 5.70341 0
vt 7.41765 0.447917 0
vt -17.5224 5.32176 0
vt 0.5 0.026042 0
vt 2.61799 0 0
vt 8.5 0.026042 0
vt -18.2209 5.73631 0
vt 7.41765 0 0
vt -17.9244 5.30095 0
vt -17.6563 5.27888 0
vt 1 0.026042 0
vt 2.61799 0.447917 0
vt 8 0 0
vt -18.3557 5.71051 0
vt 7.85398 0.447917 0
vt -18.1367 5.26135 0
vt 1 0 0
vt 2.18166 0 0
vt 8 0.026042 0
vt -18.7211 5.73492 0
vt 7.85398 0 0
vt -18.3557 5.29385 0
vt 1.5 0.026042 0
vt 1.5 0 0
vt 2.18166 0.447917 0
vt 7.5 -0 0
vt -18.7871 5.70341 0
vt 8.29031 0.447917 0
vt -18.6369 5.25997 0
vt 2 0.026042 0
vt 1.74533 0 0
vt 7.5 0.026042 0
vt -19.2014 5.7174 0
vt 8.29031 0 0
vt -18.7871 5.30095 0
vt 2 -0 0
vt 1.74533 0.447917 0
vt 7 -0 0
vt -19.1891 5.6826 0
vt 8.72665 0.447917 0
vt 8.72665 0 0
vt -19.1229 5.27482 0
vt 2.5 0.026042 0
vt 1.309 0 0
vt 7 0.026042 0
vt -19.5342 5.6495 0
vt 9.16298 0.447917 0
vt -19.1891 5.32176 0
vt 2.5 0 0
vt 1.309 0.447917 0
vt 6.5 0 0
vt -19.6291 5.68493 0
vt 9.16298 0 0
vt -19.5342 5.35487 0
vt -19.5617 5.30488 0
vt 3 0.026042 0
vt 0.872665 0.447917 0
vt 6.5 0.026042 0
vt -19.7991 5.60635 0
vt 9.59931 0 0
vt -19.7991 5.39801 0
vt 3 -0 0
vt 0.872665 0 0
vt 6 0.026042 0
vt -19.9749 5.63974 0
vt 9.59931 0.447917 0
vt -19.9232 5.34811 0
vt 3.5 0.026042 0
vt 0.436332 0.447917 0
vt 6 -0 0
vt -19.9656 5.5561 0
vt 10.0356 0 0
vt -19.9656 5.44826 0
vt 3.5 0 0
vt 0.436332 0 0
vt 5.5 0.026042 0
vt -20.0224 5.50218 0
vt 10.0356 0.447917 0
vt -20.183 5.40157 0
vt 4 0 0
vt -0 0.447917 0
vt 5.5 -0 0
vt -20.2155 5.5849 0
vt 10.472 0 0
vt 4 0.026042 0
vt 5 0.026042 0
vt 10.472 0.447917 0
vt 4.5 0 0
vt 5 -0 0
vt -20.3231 5.46161 0
vt 4.5 0.026042 0
vt -20.3342 5.52414 0

# 50 vertex normals
vn 0 -0.0254 0
vn 0 0.0254 0
vn 0.006574 0 0.0245345
vn 0 0 0.0254
vn 0 0 -0.0254
vn -0.006574 0 -0.0245345
vn -0.006574 0 0.0245345
vn 0.006574 0 -0.0245345
vn -0.0127 0 0.021997
vn 0.0127 0 -0.021997
vn -0.0179605 0 0.0179605
vn 0.0179605 0 -0.0179605
vn 0.0127 0 0.021997
vn -0.0127 0 -0.021997
vn -0.021997 0 0.0127
vn 0.021997 0 -0.0127
vn 0.0179605 0 0.0179605
vn -0.0179605 0 -0.0179605
vn 0.0150123 0 0.0204888
vn 0.00919787 0 0.0236761
vn -0.00919787 0 -0.0236761
vn -0.0150123 0 -0.0204888
vn -0.0102377 0 0.0232454
vn -0.0159052 0 0.0198037
vn 0.0159052 0 -0.0198037
vn 0.0102377 0 -0.0232454
vn -0.0204888 0 0.0150123
vn 0.0204888 0 -0.0150123
vn -0.00387246 0 0.0251031
vn 0.00387246 0 -0.0251031
vn 0.00275664 0 0.02525
vn -0.00275664 0 -0.02525
vn -0.0245345 0 0.006574
vn 0.0245345 0 -0.006574
vn 0.021997 0 0.0127
vn -0.021997 0 -0.0127
vn 0.0198037 0 0.0159052
vn -0.0198037 0 -0.0159052
vn -0.0236761 0 0.00919787
vn 0.0236761 0 -0.00919787
vn 0.0245345 0 0.006574
vn -0.0245345 0 -0.006574
vn -0.0254 0 0
vn 0.0254 -0 0
vn 0.0232454 0 0.0102377
vn -0.0232454 0 -0.0102377
vn -0.02525 0 0.00275664
vn 0.02525 0 -0.00275664
vn 0.0251031 0 0.00387246
vn -0.0251031 0 -0.00387246

# Mesh 'mesh1_mesh1-geometry' with 92 faces
g mesh1_mesh1-geometry
usemtl material_0_24
f  1/1/1 2/1/1 3/1/1
f  2/1/1 1/1/1 4/1/1
f  3/1/2 2/1/2 1/1/2
f  4/1/2 1/1/2 2/1/2
f  2/1/1 4/1/1 5/1/1
f  5/1/2 4/1/2 2/1/2
f  5/1/1 4/1/1 6/1/1
f  6/1/2 4/1/2 5/1/2
f  7/1/1 8/1/1 9/1/1
f  10/1/1 11/1/1 8/1/1
f  11/1/1 12/1/1 13/1/1
f  13/1/1 12/1/1 14/1/1
f  5/1/1 6/1/1 15/1/1
f  15/1/2 6/1/2 5/1/2
f  7/1/1 10/1/1 8/1/1
f  7/1/1 9/1/1 16/1/1
f  11/1/1 10/1/1 12/1/1
f  14/1/1 12/1/1 17/1/1
f  15/1/1 6/1/1 18/1/1
f  18/1/2 6/1/2 15/1/2
f  16/1/1 9/1/1 19/1/1
f  7/1/1 20/1/1 10/1/1
f  14/1/1 17/1/1 21/1/1
f  15/1/1 18/1/1 22/1/1
f  22/1/2 18/1/2 15/1/2
f  16/1/1 19/1/1 23/1/1
f  20/1/1 7/1/1 24/1/1
f  21/1/1 17/1/1 25/1/1
f  22/1/1 18/1/1 26/1/1
f  26/1/2 18/1/2 22/1/2
f  23/1/1 19/1/1 27/1/1
f  21/1/1 25/1/1 28/1/1
f  22/1/1 26/1/1 29/1/1
f  29/1/2 26/1/2 22/1/2
f  23/1/1 27/1/1 30/1/1
f  28/1/1 25/1/1 31/1/1
f  29/1/1 26/1/1 32/1/1
f  32/1/2 26/1/2 29/1/2
f  33/1/1 30/1/1 34/1/1
f  23/1/1 30/1/1 33/1/1
f  28/1/1 31/1/1 35/1/1
f  29/1/1 32/1/1 36/1/1
f  36/1/2 32/1/2 29/1/2
f  33/1/1 34/1/1 37/1/1
f  35/1/1 31/1/1 38/1/1
f  36/1/1 32/1/1 39/1/1
f  39/1/2 32/1/2 36/1/2
f  37/1/1 34/1/1 40/1/1
f  35/1/1 38/1/1 41/1/1
f  36/1/1 39/1/1 42/1/1
f  42/1/2 39/1/2 36/1/2
f  37/1/1 40/1/1 43/1/1
f  41/1/1 38/1/1 44/1/1
f  42/1/1 39/1/1 45/1/1
f  45/1/2 39/1/2 42/1/2
f  43/1/1 40/1/1 46/1/1
f  45/1/1 39/1/1 47/1/1
f  47/1/2 39/1/2 45/1/2
f  41/1/1 44/1/1 48/1/1
f  43/1/1 46/1/1 49/1/1
f  45/1/1 47/1/1 50/1/1
f  50/1/2 47/1/2 45/1/2
f  48/1/1 44/1/1 51/1/1
f  49/1/1 46/1/1 52/1/1
f  45/1/1 50/1/1 53/1/1
f  53/1/2 50/1/2 45/1/2
f  51/1/1 44/1/1 54/1/1
f  55/1/1 52/1/1 56/1/1
f  49/1/1 52/1/1 55/1/1
f  53/1/1 50/1/1 57/1/1
f  57/1/2 50/1/2 53/1/2
f  51/1/1 54/1/1 58/1/1
f  55/1/1 56/1/1 59/1/1
f  53/1/1 57/1/1 60/1/1
f  60/1/2 57/1/2 53/1/2
f  58/1/1 54/1/1 61/1/1
f  55/1/1 59/1/1 62/1/1
f  60/1/1 57/1/1 63/1/1
f  63/1/2 57/1/2 60/1/2
f  58/1/1 61/1/1 64/1/1
f  62/1/1 59/1/1 65/1/1
f  60/1/1 63/1/1 66/1/1
f  66/1/2 63/1/2 60/1/2
f  64/1/1 61/1/1 67/1/1
f  62/1/1 65/1/1 68/1/1
f  66/1/1 63/1/1 69/1/1
f  69/1/2 63/1/2 66/1/2
f  67/1/1 61/1/1 70/1/1
f  68/1/1 65/1/1 67/1/1
f  67/1/1 70/1/1 68/1/1
f  68/1/1 70/1/1 71/1/1
f  71/1/1 70/1/1 72/1/1

# Mesh 'mesh1_mesh1-geometry' with 240 faces
g mesh1_mesh1-geometry
usemtl material_1_1_8
f  2/2/3 8/3/4 3/4/4
f  3/4/5 8/3/5 2/2/6
f  3/4/4 11/5/7 1/6/7
f  1/6/8 11/5/8 3/4/5
f  1/6/7 13/7/9 4/8/9
f  4/8/10 13/7/10 1/6/8
f  8/3/4 2/2/3 9/9/3
f  9/9/6 2/2/6 8/3/5
f  11/5/7 3/4/4 8/3/4
f  8/3/5 3/4/5 11/5/8
f  13/7/9 1/6/7 11/5/7
f  11/5/8 1/6/8 13/7/10
f  14/10/11 4/8/9 13/7/9
f  13/7/10 4/8/10 14/10/12
f  5/11/13 9/9/3 2/2/3
f  2/2/6 9/9/6 5/11/14
f  9/12/2 8/13/2 7/14/2
f  8/13/2 11/15/2 10/16/2
f  13/17/2 12/18/2 11/15/2
f  4/8/9 14/10/11 6/19/11
f  6/19/12 14/10/12 4/8/10
f  14/20/2 12/18/2 13/17/2
f  9/9/3 5/11/13 19/21/13
f  19/21/14 5/11/14 9/9/6
f  8/13/2 10/16/2 7/14/2
f  16/22/2 9/12/2 7/14/2
f  12/18/2 10/16/2 11/15/2
f  14/10/11 18/23/15 6/19/11
f  6/19/12 18/23/16 14/10/12
f  17/24/2 12/18/2 14/20/2
f  15/25/17 19/21/13 5/11/13
f  5/11/14 19/21/14 15/25/18
f  19/26/2 9/12/2 16/22/2
f  10/16/2 20/27/2 7/14/2
f  16/28/19 73/29/20 7/30/20
f  7/30/21 73/29/21 16/28/22
f  10/31/23 74/32/24 12/33/24
f  12/33/25 74/32/25 10/31/26
f  18/23/15 14/10/11 21/34/15
f  21/34/16 14/10/12 18/23/16
f  74/32/24 17/35/27 12/33/24
f  12/33/25 17/35/28 74/32/25
f  21/36/2 17/24/2 14/20/2
f  19/21/13 15/25/17 27/37/17
f  27/37/18 15/25/18 19/21/14
f  23/38/2 19/26/2 16/22/2
f  24/39/2 7/14/2 20/27/2
f  20/40/29 75/41/23 10/31/23
f  10/31/26 75/41/26 20/40/30
f  73/29/20 16/28/19 76/42/19
f  76/42/22 16/28/22 73/29/21
f  77/43/31 7/30/20 73/29/20
f  73/29/21 7/30/21 77/43/32
f  74/32/24 10/31/23 75/41/23
f  75/41/26 10/31/26 74/32/25
f  21/34/15 26/44/33 18/23/15
f  18/23/16 26/44/34 21/34/16
f  17/35/27 74/32/24 78/45/27
f  78/45/28 74/32/25 17/35/28
f  25/46/2 17/24/2 21/36/2
f  30/47/35 15/25/17 22/48/35
f  22/48/36 15/25/18 30/47/36
f  15/25/17 30/47/35 27/37/17
f  27/37/18 30/47/36 15/25/18
f  27/49/2 19/26/2 23/38/2
f  23/50/37 76/51/19 16/1/19
f  16/1/22 76/51/22 23/50/38
f  7/30/20 77/43/31 24/52/31
f  24/52/32 77/43/32 7/30/21
f  24/52/31 79/53/29 20/40/29
f  20/40/30 79/53/30 24/52/32
f  75/41/23 20/40/29 79/53/29
f  79/53/30 20/40/30 75/41/26
f  26/44/33 21/34/15 28/54/33
f  28/54/34 21/34/16 26/44/34
f  78/45/27 25/55/39 17/35/27
f  17/35/28 25/55/40 78/45/28
f  28/56/2 25/46/2 21/36/2
f  22/48/35 34/57/41 30/47/35
f  30/47/36 34/57/42 22/48/36
f  30/58/2 27/49/2 23/38/2
f  76/51/19 23/50/37 80/59/37
f  80/59/38 23/50/38 76/51/22
f  79/53/29 24/52/31 77/43/31
f  77/43/32 24/52/32 79/53/30
f  28/54/33 32/60/43 26/44/33
f  26/44/34 32/60/44 28/54/34
f  25/55/39 78/45/27 81/61/39
f  81/61/40 78/45/28 25/55/40
f  31/62/2 25/46/2 28/56/2
f  34/57/41 22/48/35 29/63/41
f  29/63/42 22/48/36 34/57/42
f  34/64/2 30/58/2 33/65/2
f  33/65/2 30/58/2 23/38/2
f  23/50/37 82/66/45 80/59/37
f  80/59/38 82/66/46 23/50/38
f  32/60/43 28/54/33 35/67/43
f  35/67/44 28/54/34 32/60/44
f  81/61/39 31/68/47 25/55/39
f  25/55/40 31/68/48 81/61/40
f  35/69/2 31/62/2 28/56/2
f  29/63/41 40/70/44 34/57/41
f  34/57/42 40/70/43 29/63/42
f  37/71/2 34/64/2 33/65/2
f  82/66/45 23/50/37 33/72/45
f  33/72/46 23/50/38 82/66/46
f  35/67/43 39/73/42 32/60/43
f  32/60/44 39/73/41 35/67/44
f  31/68/47 81/61/39 83/74/47
f  83/74/48 81/61/40 31/68/48
f  38/75/2 31/62/2 35/69/2
f  40/70/44 29/63/41 36/76/44
f  36/76/43 29/63/42 40/70/43
f  40/77/2 34/64/2 37/71/2
f  84/78/49 33/72/45 37/79/49
f  37/79/50 33/72/46 84/78/50
f  33/72/45 84/78/49 82/66/45
f  82/66/46 84/78/50 33/72/46
f  39/73/42 35/67/43 41/80/42
f  41/80/41 35/67/44 39/73/41
f  83/74/47 38/81/50 31/68/47
f  31/68/48 38/81/49 83/74/48
f  41/82/2 38/75/2 35/69/2
f  36/76/44 46/83/34 40/70/44
f  40/70/43 46/83/33 36/76/43
f  43/84/2 40/77/2 37/71/2
f  37/79/49 85/85/48 84/78/49
f  84/78/50 85/85/47 37/79/50
f  41/80/42 47/86/36 39/73/42
f  39/73/41 47/86/35 41/80/41
f  38/81/50 83/74/47 86/87/50
f  86/87/49 83/74/48 38/81/49
f  44/88/2 38/75/2 41/82/2
f  46/83/34 36/76/44 42/89/34
f  42/89/33 36/76/43 46/83/33
f  46/90/2 40/77/2 43/84/2
f  85/85/48 37/79/49 43/91/48
f  43/91/47 37/79/50 85/85/47
f  47/86/36 41/80/42 48/92/36
f  48/92/35 41/80/41 47/86/35
f  86/87/50 44/93/46 38/81/50
f  38/81/49 44/93/45 86/87/49
f  48/94/2 44/88/2 41/82/2
f  52/95/16 42/89/34 45/96/16
f  45/96/15 42/89/33 52/95/15
f  42/89/34 52/95/16 46/83/34
f  46/83/33 52/95/15 42/89/33
f  49/97/2 46/90/2 43/84/2
f  43/91/48 87/98/40 85/85/48
f  85/85/47 87/98/39 43/91/47
f  48/92/36 50/99/18 47/86/36
f  47/86/35 50/99/17 48/92/35
f  44/93/46 86/87/50 88/100/46
f  88/100/45 86/87/49 44/93/45
f  51/101/2 44/88/2 48/94/2
f  45/96/16 56/102/12 52/95/16
f  52/95/15 56/102/11 45/96/15
f  52/103/2 46/90/2 49/97/2
f  87/98/40 43/91/48 49/104/40
f  49/104/39 43/91/47 87/98/39
f  50/99/18 48/92/36 51/105/18
f  51/105/17 48/92/35 50/99/17
f  88/100/46 54/106/38 44/93/46
f  44/93/45 54/106/37 88/100/45
f  54/107/2 44/88/2 51/101/2
f  56/102/12 45/96/16 53/108/12
f  53/108/11 45/96/15 56/102/11
f  56/109/2 52/103/2 55/110/2
f  55/110/2 52/103/2 49/97/2
f  49/104/40 89/111/28 87/98/40
f  87/98/39 89/111/27 49/104/39
f  58/112/14 50/99/18 51/105/18
f  51/105/17 50/99/17 58/112/13
f  54/106/38 88/100/46 90/113/38
f  90/113/37 88/100/45 54/106/37
f  58/114/2 54/107/2 51/101/2
f  60/115/10 56/102/12 53/108/12
f  53/108/11 56/102/11 60/115/9
f  59/116/2 56/109/2 55/110/2
f  89/111/28 49/104/40 55/117/28
f  55/117/27 49/104/39 89/111/27
f  50/99/18 58/112/14 57/118/14
f  57/118/13 58/112/13 50/99/17
f  91/119/22 54/106/38 90/113/38
f  90/113/37 54/106/37 91/119/19
f  61/120/2 54/107/2 58/114/2
f  56/102/12 60/115/10 59/121/10
f  59/121/9 60/115/9 56/102/11
f  62/122/2 59/116/2 55/110/2
f  55/117/28 92/123/25 89/111/28
f  89/111/27 92/123/24 55/117/27
f  64/124/6 57/118/14 58/112/14
f  58/112/13 57/118/13 64/124/3
f  54/106/38 91/119/22 61/125/22
f  61/125/19 91/119/19 54/106/37
f  64/126/2 61/120/2 58/114/2
f  66/127/8 59/121/10 60/115/10
f  60/115/9 59/121/9 66/127/7
f  65/128/2 59/116/2 62/122/2
f  92/123/25 55/117/28 62/129/25
f  62/129/24 55/117/27 92/123/24
f  57/118/14 64/124/6 63/130/6
f  63/130/3 64/124/3 57/118/13
f  93/131/21 61/125/22 91/119/22
f  91/119/19 61/125/19 93/131/20
f  67/132/2 61/120/2 64/126/2
f  59/121/10 66/127/8 65/133/8
f  65/133/7 66/127/7 59/121/9
f  68/134/2 65/128/2 62/122/2
f  68/135/26 92/123/25 62/129/25
f  62/129/24 92/123/24 68/135/23
f  67/136/5 63/130/6 64/124/6
f  64/124/3 63/130/3 67/136/4
f  61/125/22 93/131/21 70/137/21
f  70/137/20 93/131/20 61/125/19
f  70/138/2 61/120/2 67/132/2
f  69/139/5 65/133/8 66/127/8
f  66/127/7 65/133/7 69/139/4
f  67/132/2 65/128/2 68/134/2
f  92/123/25 68/135/26 94/140/26
f  94/140/23 68/135/23 92/123/24
f  63/130/6 67/136/5 69/1/5
f  69/1/4 67/136/4 63/130/3
f  95/141/32 70/137/21 93/131/21
f  93/131/20 70/137/20 95/141/31
f  68/134/2 70/138/2 67/132/2
f  65/133/8 69/139/5 67/142/5
f  67/142/4 69/139/4 65/133/7
f  71/143/30 94/140/26 68/135/26
f  68/135/23 94/140/23 71/143/29
f  70/137/21 95/141/32 72/144/32
f  72/144/31 95/141/31 70/137/20
f  71/145/2 70/138/2 68/134/2
f  94/140/26 71/143/30 96/146/30
f  96/146/29 71/143/29 94/140/23
f  96/146/30 72/144/32 95/141/32
f  95/141/31 72/144/31 96/146/29
f  72/147/2 70/138/2 71/145/2
f  72/144/32 96/146/30 71/143/30
f  71/143/29 96/146/29 72/144/31

# Mesh 'mesh2_mesh2-geometry' with 24 faces
g mesh2_mesh2-geometry
usemtl material_0_0
l  69 63
l  66 69
l  63 57
l  60 66
l  57 50
l  53 60
l  50 47
l  45 53
l  47 39
l  42 45
l  39 32
l  36 42
l  32 26
l  29 36
l  26 18
l  22 29
l  18 6
l  15 22
l  6 4
l  5 15
l  4 1
l  2 5
l  1 3
l  3 2

