# File produced by Open Asset Import Library (http://www.assimp.sf.net)
# (assimp v3.2.202087883)

mtllib model_normalized.mtl

# 112 vertex positions
v -0.147754 -0.259172 0.426333
v 0.144755 -0.259172 -0.013458
v 0.144755 -0.259172 0.426333
v -0.147754 -0.259172 -0.013458
v 0.144755 0.110589 -0.013458
v 0.144755 0.110589 0.426333
v 0.219009 0.063440 -0.013458
v 0.219009 0.063440 0.426333
v -0.147754 0.302052 0.426333
v 0.009417 -0.076518 -0.013458
v 0.056420 0.048623 -0.013458
v -0.147754 0.302052 -0.013458
v 0.011366 -0.073976 -0.013458
v 0.006876 -0.078467 -0.013458
v 0.050755 0.062301 -0.013458
v 0.058352 0.033946 -0.013458
v -0.244624 0.397042 0.426333
v -0.244624 0.370906 -0.013458
v -0.055068 0.033946 -0.013458
v 0.050755 0.005591 -0.013458
v 0.011366 -0.073976 -0.169005
v 0.003917 -0.079692 -0.013458
v 0.006876 -0.078467 -0.169005
v 0.219009 0.087851 -0.013458
v 0.041742 0.074046 -0.013458
v 0.050755 0.062301 0.058297
v 0.056420 0.019267 -0.013458
v 0.056420 0.048623 0.058297
v -0.244624 0.370906 0.426333
v -0.244624 0.397042 -0.013458
v -0.053135 0.048623 -0.013458
v -0.053135 0.019267 -0.013458
v 0.041742 -0.006154 -0.013458
v 0.009417 -0.076518 -0.169005
v 0.012592 -0.071018 -0.169005
v 0.000742 -0.080110 -0.013458
v 0.003917 -0.079692 -0.169005
v 0.041742 0.074046 0.058297
v 0.058352 0.033946 0.058297
v 0.219009 0.087851 0.426333
v -0.047470 0.062301 -0.013458
v -0.055068 0.033946 0.058297
v -0.047470 0.005591 -0.013458
v -0.053135 0.019267 0.058297
v 0.056420 0.019267 0.058297
v 0.012592 -0.071018 -0.013458
v 0.050755 0.005591 0.058297
v 0.009417 -0.059168 -0.169005
v 0.012592 -0.064668 -0.169005
v -0.002433 -0.079692 -0.013458
v 0.000742 -0.080110 -0.169005
v 0.006876 -0.057219 -0.169005
v 0.003917 -0.055993 -0.169005
v 0.029997 0.083058 -0.013458
v -0.038458 0.074046 -0.013458
v -0.053135 0.048623 0.058297
v -0.038458 -0.006154 -0.013458
v -0.047470 0.005591 0.058297
v 0.029997 -0.015166 -0.013458
v 0.041742 -0.006154 0.058297
v 0.011366 -0.061710 -0.169005
v 0.013010 -0.067842 -0.169005
v -0.005392 -0.078467 -0.013458
v -0.002433 -0.079692 -0.169005
v 0.016320 0.088723 -0.013458
v 0.029997 0.083058 0.058297
v -0.026713 0.083058 -0.013458
v -0.047470 0.062301 0.058297
v -0.026713 -0.015166 -0.013458
v -0.038458 -0.006154 0.058297
v 0.013010 -0.067842 -0.013458
v 0.029997 -0.015166 0.058297
v 0.011366 -0.061710 -0.013458
v 0.006876 -0.057219 -0.013458
v 0.012592 -0.064668 -0.013458
v -0.007933 -0.076518 -0.013458
v -0.005392 -0.078467 -0.169005
v 0.000742 -0.055576 -0.169005
v 0.003917 -0.055993 -0.013458
v 0.001642 0.090656 -0.013458
v -0.013035 0.088723 -0.013458
v -0.026713 0.083058 0.058297
v -0.038458 0.074046 0.058297
v -0.013035 -0.020833 -0.013458
v 0.016320 -0.020833 -0.013458
v 0.016320 -0.020833 0.058297
v 0.009417 -0.059168 -0.013458
v -0.009882 -0.073976 -0.013458
v -0.007933 -0.076518 -0.169005
v -0.005392 -0.057219 -0.169005
v -0.002433 -0.055993 -0.169005
v 0.000742 -0.055576 -0.013458
v 0.016320 0.088723 0.058297
v -0.013035 0.088723 0.058297
v -0.011526 -0.067842 -0.013458
v -0.026713 -0.015166 0.058297
v 0.001642 -0.022765 -0.013458
v -0.011108 -0.071018 -0.013458
v -0.002433 -0.055993 -0.013458
v 0.001642 0.090656 0.058297
v -0.011108 -0.064668 -0.013458
v -0.013035 -0.020833 0.058297
v 0.001642 -0.022765 0.058297
v -0.009882 -0.073976 -0.169005
v -0.007933 -0.059168 -0.169005
v -0.005392 -0.057219 -0.013458
v -0.011108 -0.071018 -0.169005
v -0.009882 -0.061710 -0.013458
v -0.011526 -0.067842 -0.169005
v -0.009882 -0.061710 -0.169005
v -0.007933 -0.059168 -0.013458
v -0.011108 -0.064668 -0.169005

# 5 UV coordinates
vt 0 0 0
vt -2.08173 10.2324 0
vt 3.316 1.04324 0
vt 3.316 10.2324 0
vt -2.08173 1.04324 0

# 32 vertex normals
vn -0 -0.0254 0
vn 0.0254 -0 0
vn -0.0136156 -0.0214424 0
vn 0 0.0254 0
vn -0.0254 0 0
vn 0 0 -0.0254
vn 0 -0 0.0254
vn 0.0136156 0.0214424 0
vn 0.0147157 0.0207029 0
vn -0.021997 0.0127 0
vn -0.0179605 0.0179605 0
vn -0.0127 0.021997 0
vn 0.021997 0.0127 0
vn 0.0245345 0.006574 0
vn -0.0245345 0.006574 0
vn -0.006574 0.0245345 0
vn 0.0179605 0.0179605 0
vn 0.0245345 -0.006574 0
vn -0.0245345 -0.006574 0
vn 0.021997 -0.0127 0
vn 0.0179605 -0.0179605 0
vn -0.0140927 -0.0211319 0
vn 0.0127 0.021997 0
vn -0.021997 -0.0127 0
vn 0.006574 0.0245345 0
vn -0.0179605 -0.0179605 0
vn 0.0127 -0.021997 0
vn -0.0127 -0.021997 0
vn -0.006574 -0.0245345 0
vn 0.006574 -0.0245345 0
vn -0.0147157 -0.0207029 0
vn 0.0140927 0.0211319 0

# Mesh 'mesh1_mesh1-geometry' with 6 faces
g mesh1_mesh1-geometry
usemtl material_0_24
f  1/1/1 2/1/1 3/1/1
f  2/1/1 1/1/1 4/1/1
f  5/1/2 3/1/2 2/1/2
f  3/1/2 5/1/2 6/1/2
f  7/1/3 6/1/3 5/1/3
f  6/1/3 7/1/3 8/1/3

# Mesh 'mesh1_mesh1-geometry' with 198 faces
g mesh1_mesh1-geometry
usemtl material_1_24
f  3/1/4 2/1/4 1/1/4
f  4/1/4 1/1/4 2/1/4
f  2/1/5 3/1/5 5/1/5
f  9/1/6 3/1/6 1/1/6
f  1/1/2 4/1/2 9/1/2
f  4/1/7 2/1/7 10/1/7
f  6/1/5 5/1/5 3/1/5
f  2/1/7 5/1/7 11/1/7
f  3/1/6 9/1/6 6/1/6
f  12/1/2 9/1/2 4/1/2
f  10/1/7 2/1/7 13/1/7
f  14/1/7 4/1/7 10/1/7
f  5/1/8 6/1/8 7/1/8
f  11/1/7 5/1/7 15/1/7
f  16/1/7 2/1/7 11/1/7
f  9/1/6 17/1/6 6/1/6
f  12/1/9 18/1/9 9/1/9
f  4/1/7 19/1/7 12/1/7
f  13/1/7 2/1/7 20/1/7
f  13/1/10 21/1/10 10/1/11
f  22/1/7 4/1/7 14/1/7
f  14/1/12 10/1/11 23/1/12
f  8/1/8 7/1/8 6/1/8
f  7/1/7 24/1/7 5/1/7
f  15/1/7 5/1/7 25/1/7
f  15/1/13 26/1/13 11/1/14
f  16/1/7 27/1/7 2/1/7
f  11/1/14 28/1/14 16/1/2
f  6/1/6 17/1/6 8/1/6
f  29/1/6 17/1/6 9/1/6
f  29/1/9 9/1/9 18/1/9
f  18/1/7 12/1/7 30/1/7
f  19/1/7 31/1/7 12/1/7
f  19/1/7 4/1/7 32/1/7
f  20/1/7 2/1/7 27/1/7
f  33/1/7 13/1/7 20/1/7
f  34/1/11 10/1/11 21/1/10
f  21/1/10 13/1/10 35/1/15
f  36/1/7 4/1/7 22/1/7
f  22/1/16 14/1/12 37/1/16
f  34/1/11 23/1/12 10/1/11
f  23/1/12 37/1/16 14/1/12
f  7/1/5 8/1/5 24/1/5
f  30/1/7 5/1/7 24/1/7
f  25/1/7 5/1/7 12/1/7
f  25/1/17 38/1/17 15/1/13
f  28/1/14 11/1/14 26/1/13
f  26/1/13 15/1/13 38/1/17
f  16/1/2 39/1/2 27/1/18
f  39/1/2 16/1/2 28/1/14
f  40/1/6 8/1/6 17/1/6
f  29/1/2 18/1/2 17/1/2
f  12/1/7 5/1/7 30/1/7
f  30/1/2 17/1/2 18/1/2
f  31/1/7 41/1/7 12/1/7
f  19/1/5 42/1/5 31/1/15
f  32/1/7 4/1/7 43/1/7
f  32/1/19 44/1/19 19/1/5
f  27/1/18 45/1/18 20/1/20
f  46/1/7 13/1/7 33/1/7
f  20/1/20 47/1/20 33/1/21
f  34/1/7 21/1/7 48/1/7
f  46/1/15 35/1/15 13/1/10
f  21/1/7 35/1/7 49/1/7
f  50/1/7 4/1/7 36/1/7
f  36/1/4 22/1/16 51/1/4
f  37/1/16 51/1/4 22/1/16
f  23/1/7 34/1/7 52/1/7
f  37/1/7 23/1/7 53/1/7
f  40/1/5 24/1/5 8/1/5
f  30/1/22 24/1/22 17/1/22
f  54/1/7 25/1/7 12/1/7
f  25/1/17 54/1/23 38/1/17
f  45/1/18 27/1/18 39/1/2
f  40/1/22 17/1/22 24/1/22
f  41/1/7 55/1/7 12/1/7
f  31/1/15 56/1/15 41/1/10
f  56/1/15 31/1/15 42/1/5
f  42/1/5 19/1/5 44/1/19
f  43/1/7 4/1/7 57/1/7
f  43/1/24 58/1/24 32/1/19
f  44/1/19 32/1/19 58/1/24
f  47/1/20 20/1/20 45/1/18
f  59/1/7 46/1/7 33/1/7
f  60/1/21 33/1/21 47/1/20
f  48/1/7 21/1/7 61/1/7
f  52/1/7 34/1/7 48/1/7
f  35/1/15 46/1/15 62/1/5
f  62/1/7 49/1/7 35/1/7
f  61/1/7 21/1/7 49/1/7
f  63/1/7 4/1/7 50/1/7
f  50/1/25 36/1/4 64/1/25
f  51/1/4 64/1/25 36/1/4
f  51/1/7 37/1/7 53/1/7
f  53/1/7 23/1/7 52/1/7
f  65/1/7 54/1/7 12/1/7
f  66/1/23 38/1/17 54/1/23
f  55/1/7 67/1/7 12/1/7
f  41/1/10 68/1/10 55/1/11
f  68/1/10 41/1/10 56/1/15
f  57/1/7 4/1/7 69/1/7
f  57/1/26 70/1/26 43/1/24
f  58/1/24 43/1/24 70/1/26
f  71/1/7 46/1/7 59/1/7
f  59/1/27 33/1/21 72/1/27
f  60/1/21 72/1/27 33/1/21
f  61/1/24 73/1/24 48/1/26
f  52/1/28 48/1/26 74/1/28
f  71/1/5 62/1/5 46/1/15
f  62/1/5 71/1/5 49/1/19
f  49/1/19 75/1/19 61/1/24
f  76/1/7 4/1/7 63/1/7
f  63/1/23 50/1/25 77/1/23
f  64/1/25 77/1/23 50/1/25
f  64/1/7 51/1/7 78/1/7
f  78/1/7 51/1/7 53/1/7
f  53/1/29 52/1/28 79/1/29
f  54/1/23 65/1/25 66/1/23
f  80/1/7 65/1/7 12/1/7
f  67/1/7 81/1/7 12/1/7
f  67/1/12 55/1/11 82/1/12
f  83/1/11 55/1/11 68/1/10
f  69/1/7 4/1/7 84/1/7
f  57/1/26 69/1/28 70/1/26
f  85/1/7 71/1/7 59/1/7
f  72/1/27 86/1/30 59/1/27
f  87/1/26 48/1/26 73/1/24
f  73/1/24 61/1/24 75/1/19
f  87/1/26 74/1/28 48/1/26
f  74/1/28 79/1/29 52/1/28
f  75/1/19 49/1/19 71/1/5
f  88/1/7 4/1/7 76/1/7
f  76/1/17 63/1/23 89/1/17
f  77/1/23 89/1/17 63/1/23
f  77/1/7 64/1/7 90/1/7
f  91/1/7 64/1/7 78/1/7
f  78/1/1 53/1/29 92/1/1
f  79/1/29 92/1/1 53/1/29
f  93/1/25 66/1/23 65/1/25
f  65/1/25 80/1/4 93/1/25
f  81/1/7 80/1/7 12/1/7
f  81/1/16 67/1/12 94/1/16
f  83/1/11 82/1/12 55/1/11
f  82/1/12 94/1/16 67/1/12
f  84/1/7 4/1/7 95/1/7
f  69/1/28 84/1/29 96/1/28
f  96/1/28 70/1/26 69/1/28
f  71/1/7 85/1/7 75/1/7
f  85/1/30 59/1/27 86/1/30
f  87/1/7 73/1/7 97/1/7
f  73/1/7 75/1/7 97/1/7
f  74/1/7 87/1/7 97/1/7
f  79/1/7 74/1/7 97/1/7
f  98/1/7 4/1/7 88/1/7
f  76/1/17 89/1/17 88/1/13
f  89/1/7 77/1/7 90/1/7
f  90/1/7 64/1/7 91/1/7
f  91/1/30 78/1/1 99/1/30
f  92/1/1 99/1/30 78/1/1
f  92/1/7 79/1/7 97/1/7
f  100/1/4 93/1/25 80/1/4
f  80/1/4 81/1/16 100/1/4
f  94/1/16 100/1/4 81/1/16
f  95/1/7 4/1/7 98/1/7
f  95/1/7 101/1/7 84/1/7
f  102/1/29 96/1/28 84/1/29
f  97/1/7 75/1/7 85/1/7
f  86/1/30 103/1/1 85/1/30
f  88/1/13 104/1/13 98/1/14
f  104/1/13 88/1/13 89/1/17
f  105/1/7 89/1/7 90/1/7
f  90/1/27 91/1/30 106/1/27
f  99/1/30 106/1/27 91/1/30
f  99/1/7 92/1/7 84/1/7
f  84/1/7 92/1/7 97/1/7
f  98/1/14 107/1/14 95/1/2
f  101/1/7 108/1/7 84/1/7
f  95/1/2 109/1/2 101/1/18
f  84/1/29 97/1/1 102/1/29
f  97/1/1 85/1/30 103/1/1
f  107/1/14 98/1/14 104/1/13
f  104/1/7 89/1/7 110/1/7
f  110/1/7 89/1/7 105/1/7
f  105/1/21 90/1/27 111/1/21
f  106/1/27 111/1/21 90/1/27
f  106/1/7 99/1/7 84/1/7
f  109/1/2 95/1/2 107/1/14
f  108/1/7 111/1/7 84/1/7
f  101/1/18 112/1/18 108/1/20
f  112/1/18 101/1/18 109/1/2
f  103/1/1 102/1/29 97/1/1
f  107/1/7 104/1/7 112/1/7
f  112/1/7 104/1/7 110/1/7
f  105/1/21 111/1/21 110/1/20
f  111/1/7 106/1/7 84/1/7
f  109/1/7 107/1/7 112/1/7
f  108/1/20 110/1/20 111/1/21
f  110/1/20 108/1/20 112/1/18

# Mesh 'mesh1_mesh1-geometry' with 68 faces
g mesh1_mesh1-geometry
usemtl material_2_24
f  1/1/7 3/1/7 9/1/7
f  10/1/6 2/1/6 4/1/6
f  11/1/6 5/1/6 2/1/6
f  6/1/7 9/1/7 3/1/7
f  13/1/6 2/1/6 10/1/6
f  10/1/6 4/1/6 14/1/6
f  15/1/6 5/1/6 11/1/6
f  11/1/6 2/1/6 16/1/6
f  6/1/7 17/1/7 9/1/7
f  12/1/6 19/1/6 4/1/6
f  20/1/6 2/1/6 13/1/6
f  14/1/6 4/1/6 22/1/6
f  5/1/6 24/1/6 7/1/6
f  25/1/6 5/1/6 15/1/6
f  2/1/6 27/1/6 16/1/6
f  8/1/7 17/1/7 6/1/7
f  9/1/7 17/1/7 29/1/7
f  30/1/6 12/1/6 18/1/6
f  12/1/6 31/1/6 19/1/6
f  32/1/6 4/1/6 19/1/6
f  27/1/6 2/1/6 20/1/6
f  20/1/6 13/1/6 33/1/6
f  22/1/6 4/1/6 36/1/6
f  24/1/2 8/1/2 7/1/2
f  24/1/6 5/1/6 30/1/6
f  12/1/6 5/1/6 25/1/6
f  17/1/7 8/1/7 40/1/7
f  17/1/5 18/1/5 29/1/5
f  30/1/6 5/1/6 12/1/6
f  18/1/5 17/1/5 30/1/5
f  12/1/6 41/1/6 31/1/6
f  43/1/6 4/1/6 32/1/6
f  33/1/6 13/1/6 46/1/6
f  36/1/6 4/1/6 50/1/6
f  8/1/2 24/1/2 40/1/2
f  12/1/6 25/1/6 54/1/6
f  12/1/6 55/1/6 41/1/6
f  57/1/6 4/1/6 43/1/6
f  33/1/6 46/1/6 59/1/6
f  50/1/6 4/1/6 63/1/6
f  12/1/6 54/1/6 65/1/6
f  12/1/6 67/1/6 55/1/6
f  69/1/6 4/1/6 57/1/6
f  59/1/6 46/1/6 71/1/6
f  63/1/6 4/1/6 76/1/6
f  12/1/6 65/1/6 80/1/6
f  12/1/6 81/1/6 67/1/6
f  84/1/6 4/1/6 69/1/6
f  59/1/6 71/1/6 85/1/6
f  76/1/6 4/1/6 88/1/6
f  12/1/6 80/1/6 81/1/6
f  95/1/6 4/1/6 84/1/6
f  75/1/6 85/1/6 71/1/6
f  97/1/6 73/1/6 87/1/6
f  97/1/6 75/1/6 73/1/6
f  97/1/6 87/1/6 74/1/6
f  97/1/6 74/1/6 79/1/6
f  88/1/6 4/1/6 98/1/6
f  97/1/6 79/1/6 92/1/6
f  98/1/6 4/1/6 95/1/6
f  84/1/6 101/1/6 95/1/6
f  85/1/6 75/1/6 97/1/6
f  84/1/6 92/1/6 99/1/6
f  97/1/6 92/1/6 84/1/6
f  84/1/6 108/1/6 101/1/6
f  84/1/6 99/1/6 106/1/6
f  84/1/6 111/1/6 108/1/6
f  84/1/6 106/1/6 111/1/6

# Mesh 'mesh1_mesh1-geometry' with 4 faces
g mesh1_mesh1-geometry
usemtl material_4_24
f  9/1/5 4/1/5 1/1/5
f  4/1/5 9/1/5 12/1/5
f  9/1/31 18/1/31 12/1/31
f  18/1/31 9/1/31 29/1/31

# Mesh 'mesh1_mesh1-geometry' with 118 faces
g mesh1_mesh1-geometry
usemtl material_5_24
f  10/1/21 21/1/20 13/1/20
f  23/1/27 10/1/21 14/1/27
f  11/1/19 26/1/24 15/1/24
f  16/1/5 28/1/19 11/1/19
f  21/1/20 10/1/21 34/1/21
f  35/1/18 13/1/20 21/1/20
f  37/1/30 14/1/27 22/1/30
f  10/1/21 23/1/27 34/1/21
f  14/1/27 37/1/30 23/1/27
f  15/1/24 38/1/26 25/1/26
f  26/1/24 11/1/19 28/1/19
f  38/1/26 15/1/24 26/1/24
f  27/1/15 39/1/5 16/1/5
f  28/1/19 16/1/5 39/1/5
f  31/1/18 42/1/2 19/1/2
f  19/1/2 44/1/14 32/1/14
f  20/1/10 45/1/15 27/1/15
f  33/1/11 47/1/10 20/1/10
f  48/1/6 21/1/6 34/1/6
f  13/1/20 35/1/18 46/1/18
f  49/1/6 35/1/6 21/1/6
f  51/1/1 22/1/30 36/1/1
f  22/1/30 51/1/1 37/1/30
f  52/1/6 34/1/6 23/1/6
f  53/1/6 23/1/6 37/1/6
f  38/1/26 54/1/28 25/1/26
f  39/1/5 27/1/15 45/1/15
f  41/1/20 56/1/18 31/1/18
f  42/1/2 31/1/18 56/1/18
f  44/1/14 19/1/2 42/1/2
f  32/1/14 58/1/13 43/1/13
f  58/1/13 32/1/14 44/1/14
f  45/1/15 20/1/10 47/1/10
f  47/1/10 33/1/11 60/1/11
f  61/1/6 21/1/6 48/1/6
f  48/1/6 34/1/6 52/1/6
f  62/1/2 46/1/18 35/1/18
f  35/1/6 49/1/6 62/1/6
f  49/1/6 21/1/6 61/1/6
f  64/1/29 36/1/1 50/1/29
f  36/1/1 64/1/29 51/1/1
f  53/1/6 37/1/6 51/1/6
f  52/1/6 23/1/6 53/1/6
f  54/1/28 38/1/26 66/1/28
f  55/1/21 68/1/20 41/1/20
f  56/1/18 41/1/20 68/1/20
f  43/1/13 70/1/17 57/1/17
f  70/1/17 43/1/13 58/1/13
f  72/1/12 33/1/11 59/1/12
f  33/1/11 72/1/12 60/1/11
f  48/1/17 73/1/13 61/1/13
f  74/1/23 48/1/17 52/1/23
f  46/1/18 62/1/2 71/1/2
f  49/1/14 71/1/2 62/1/2
f  61/1/13 75/1/14 49/1/14
f  77/1/28 50/1/29 63/1/28
f  50/1/29 77/1/28 64/1/29
f  78/1/6 51/1/6 64/1/6
f  53/1/6 51/1/6 78/1/6
f  79/1/25 52/1/23 53/1/25
f  66/1/28 65/1/29 54/1/28
f  82/1/27 55/1/21 67/1/27
f  68/1/20 55/1/21 83/1/21
f  70/1/17 69/1/23 57/1/17
f  59/1/12 86/1/16 72/1/12
f  73/1/13 48/1/17 87/1/17
f  75/1/14 61/1/13 73/1/13
f  48/1/17 74/1/23 87/1/17
f  52/1/23 79/1/25 74/1/23
f  71/1/2 49/1/14 75/1/14
f  89/1/26 63/1/28 76/1/26
f  63/1/28 89/1/26 77/1/28
f  90/1/6 64/1/6 77/1/6
f  78/1/6 64/1/6 91/1/6
f  92/1/4 53/1/25 78/1/4
f  53/1/25 92/1/4 79/1/25
f  65/1/29 66/1/28 93/1/29
f  93/1/29 80/1/1 65/1/29
f  94/1/30 67/1/27 81/1/30
f  55/1/21 82/1/27 83/1/21
f  67/1/27 94/1/30 82/1/27
f  96/1/23 84/1/25 69/1/23
f  69/1/23 70/1/17 96/1/23
f  86/1/16 59/1/12 85/1/16
f  88/1/24 89/1/26 76/1/26
f  90/1/6 77/1/6 89/1/6
f  91/1/6 64/1/6 90/1/6
f  99/1/16 78/1/4 91/1/16
f  78/1/4 99/1/16 92/1/4
f  80/1/1 93/1/29 100/1/1
f  100/1/1 81/1/30 80/1/1
f  81/1/30 100/1/1 94/1/30
f  84/1/25 96/1/23 102/1/25
f  85/1/16 103/1/4 86/1/16
f  98/1/19 104/1/24 88/1/24
f  89/1/26 88/1/24 104/1/24
f  90/1/6 89/1/6 105/1/6
f  106/1/12 91/1/16 90/1/12
f  91/1/16 106/1/12 99/1/16
f  95/1/5 107/1/19 98/1/19
f  101/1/15 109/1/5 95/1/5
f  102/1/25 97/1/4 84/1/25
f  103/1/4 85/1/16 97/1/4
f  104/1/24 98/1/19 107/1/19
f  110/1/6 89/1/6 104/1/6
f  105/1/6 89/1/6 110/1/6
f  111/1/11 90/1/12 105/1/11
f  90/1/12 111/1/11 106/1/12
f  107/1/19 95/1/5 109/1/5
f  108/1/10 112/1/15 101/1/15
f  109/1/5 101/1/15 112/1/15
f  97/1/4 102/1/25 103/1/4
f  112/1/6 104/1/6 107/1/6
f  110/1/6 104/1/6 112/1/6
f  110/1/10 111/1/11 105/1/11
f  112/1/6 107/1/6 109/1/6
f  111/1/11 110/1/10 108/1/10
f  112/1/15 108/1/10 110/1/10

# Mesh 'mesh1_mesh1-geometry' with 2 faces
g mesh1_mesh1-geometry
usemtl material_3_1_8
f  17/2/32 24/3/32 30/4/32
f  24/3/32 17/2/32 40/5/32

